<svg width="1440" height="676" viewBox="0 0 1440 676" fill="none" xmlns="http://www.w3.org/2000/svg" xmlns:xlink="http://www.w3.org/1999/xlink">
<rect width="1440" height="676" fill="#09090B"/>
<rect width="1440" height="676" fill="url(#paint0_radial_26758_73282)"/>
<rect width="1440" height="676" fill="url(#pattern0_26758_73282)" fill-opacity="0.5"/>
<defs>
<radialGradient id="paint0_radial_26758_73282" cx="0" cy="0" r="1" gradientUnits="userSpaceOnUse" gradientTransform="translate(720 -78.5253) rotate(90) scale(754.525 720)">
<stop offset="0.07" stop-color="#FFDDCC"/>
<stop offset="0.3" stop-color="#5BA0A6"/>
<stop offset="0.6" stop-color="#2D3480"/>
<stop offset="1" stop-color="#09090B"/>
</radialGradient>
<pattern id="pattern0_26758_73282" patternUnits="userSpaceOnUse" patternTransform="matrix(242.207 0 0 121.103 659.448 277.448)" preserveAspectRatio="none" viewBox="0 0 2018.39 1009.19" width="1" height="1">
<use xlink:href="#pattern0_26758_73282_inner" transform="translate(0 -1009.19)"/>
<use xlink:href="#pattern0_26758_73282_inner" transform="translate(1009.19 -504.597)"/>
<g id="pattern0_26758_73282_inner">
<g clip-path="url(#clip0_26758_73282)">
<path opacity="0.35" d="M4 12C8.41828 12 12 8.41828 12 4C12 -0.418278 8.41828 -4 4 -4C-0.418278 -4 -4 -0.418278 -4 4C-4 8.41828 -0.418278 12 4 12Z" fill="#0A0A0A"/>
<path opacity="0.35" d="M60 12C64.4183 12 68 8.41828 68 4C68 -0.418278 64.4183 -4 60 -4C55.5817 -4 52 -0.418278 52 4C52 8.41828 55.5817 12 60 12Z" fill="#0A0A0A"/>
<path opacity="0.35" d="M116 12C120.418 12 124 8.41828 124 4C124 -0.418278 120.418 -4 116 -4C111.582 -4 108 -0.418278 108 4C108 8.41828 111.582 12 116 12Z" fill="#0A0A0A"/>
<path opacity="0.35" d="M173 12C177.418 12 181 8.41828 181 4C181 -0.418278 177.418 -4 173 -4C168.582 -4 165 -0.418278 165 4C165 8.41828 168.582 12 173 12Z" fill="#0A0A0A"/>
<path opacity="0.35" d="M229 12C233.418 12 237 8.41828 237 4C237 -0.418278 233.418 -4 229 -4C224.582 -4 221 -0.418278 221 4C221 8.41828 224.582 12 229 12Z" fill="#0A0A0A"/>
<path opacity="0.35" d="M285 12C289.418 12 293 8.41828 293 4C293 -0.418278 289.418 -4 285 -4C280.582 -4 277 -0.418278 277 4C277 8.41828 280.582 12 285 12Z" fill="#0A0A0A"/>
<path opacity="0.35" d="M341 12C345.418 12 349 8.41828 349 4C349 -0.418278 345.418 -4 341 -4C336.582 -4 333 -0.418278 333 4C333 8.41828 336.582 12 341 12Z" fill="#0A0A0A"/>
<path opacity="0.35" d="M397 12C401.418 12 405 8.41828 405 4C405 -0.418278 401.418 -4 397 -4C392.582 -4 389 -0.418278 389 4C389 8.41828 392.582 12 397 12Z" fill="#0A0A0A"/>
<path opacity="0.35" d="M453 12C457.418 12 461 8.41828 461 4C461 -0.418278 457.418 -4 453 -4C448.582 -4 445 -0.418278 445 4C445 8.41828 448.582 12 453 12Z" fill="#0A0A0A"/>
<path opacity="0.35" d="M509 12C513.418 12 517 8.41828 517 4C517 -0.418278 513.418 -4 509 -4C504.582 -4 501 -0.418278 501 4C501 8.41828 504.582 12 509 12Z" fill="#0A0A0A"/>
<path opacity="0.35" d="M565 12C569.418 12 573 8.41828 573 4C573 -0.418278 569.418 -4 565 -4C560.582 -4 557 -0.418278 557 4C557 8.41828 560.582 12 565 12Z" fill="#0A0A0A"/>
<path opacity="0.35" d="M621 12C625.418 12 629 8.41828 629 4C629 -0.418278 625.418 -4 621 -4C616.582 -4 613 -0.418278 613 4C613 8.41828 616.582 12 621 12Z" fill="#0A0A0A"/>
<path opacity="0.35" d="M677 12C681.418 12 685 8.41828 685 4C685 -0.418278 681.418 -4 677 -4C672.582 -4 669 -0.418278 669 4C669 8.41828 672.582 12 677 12Z" fill="#0A0A0A"/>
<path opacity="0.35" d="M733 12C737.418 12 741 8.41828 741 4C741 -0.418278 737.418 -4 733 -4C728.582 -4 725 -0.418278 725 4C725 8.41828 728.582 12 733 12Z" fill="#0A0A0A"/>
<path opacity="0.35" d="M789 12C793.418 12 797 8.41828 797 4C797 -0.418278 793.418 -4 789 -4C784.582 -4 781 -0.418278 781 4C781 8.41828 784.582 12 789 12Z" fill="#0A0A0A"/>
<path opacity="0.35" d="M845 12C849.418 12 853 8.41828 853 4C853 -0.418278 849.418 -4 845 -4C840.582 -4 837 -0.418278 837 4C837 8.41828 840.582 12 845 12Z" fill="#0A0A0A"/>
<path opacity="0.35" d="M901 12C905.418 12 909 8.41828 909 4C909 -0.418278 905.418 -4 901 -4C896.582 -4 893 -0.418278 893 4C893 8.41828 896.582 12 901 12Z" fill="#0A0A0A"/>
<path opacity="0.35" d="M957 12C961.418 12 965 8.41828 965 4C965 -0.418278 961.418 -4 957 -4C952.582 -4 949 -0.418278 949 4C949 8.41828 952.582 12 957 12Z" fill="#0A0A0A"/>
<path opacity="0.35" d="M1014 12C1018.42 12 1022 8.41828 1022 4C1022 -0.418278 1018.42 -4 1014 -4C1009.58 -4 1006 -0.418278 1006 4C1006 8.41828 1009.58 12 1014 12Z" fill="#0A0A0A"/>
<path opacity="0.35" d="M4 68C8.41828 68 12 64.4183 12 60C12 55.5817 8.41828 52 4 52C-0.418278 52 -4 55.5817 -4 60C-4 64.4183 -0.418278 68 4 68Z" fill="#0A0A0A"/>
<path d="M60 68C64.4183 68 68 64.4183 68 60C68 55.5817 64.4183 52 60 52C55.5817 52 52 55.5817 52 60C52 64.4183 55.5817 68 60 68Z" fill="#0A0A0A"/>
<path opacity="0.35" d="M116 68C120.418 68 124 64.4183 124 60C124 55.5817 120.418 52 116 52C111.582 52 108 55.5817 108 60C108 64.4183 111.582 68 116 68Z" fill="#0A0A0A"/>
<path d="M173 68C177.418 68 181 64.4183 181 60C181 55.5817 177.418 52 173 52C168.582 52 165 55.5817 165 60C165 64.4183 168.582 68 173 68Z" fill="#0A0A0A"/>
<path d="M229 68C233.418 68 237 64.4183 237 60C237 55.5817 233.418 52 229 52C224.582 52 221 55.5817 221 60C221 64.4183 224.582 68 229 68Z" fill="#0A0A0A"/>
<path d="M285 68C289.418 68 293 64.4183 293 60C293 55.5817 289.418 52 285 52C280.582 52 277 55.5817 277 60C277 64.4183 280.582 68 285 68Z" fill="#0A0A0A"/>
<path opacity="0.35" d="M341 68C345.418 68 349 64.4183 349 60C349 55.5817 345.418 52 341 52C336.582 52 333 55.5817 333 60C333 64.4183 336.582 68 341 68Z" fill="#0A0A0A"/>
<path opacity="0.35" d="M397 68C401.418 68 405 64.4183 405 60C405 55.5817 401.418 52 397 52C392.582 52 389 55.5817 389 60C389 64.4183 392.582 68 397 68Z" fill="#0A0A0A"/>
<path opacity="0.35" d="M453 68C457.418 68 461 64.4183 461 60C461 55.5817 457.418 52 453 52C448.582 52 445 55.5817 445 60C445 64.4183 448.582 68 453 68Z" fill="#0A0A0A"/>
<path opacity="0.35" d="M509 68C513.418 68 517 64.4183 517 60C517 55.5817 513.418 52 509 52C504.582 52 501 55.5817 501 60C501 64.4183 504.582 68 509 68Z" fill="#0A0A0A"/>
<path d="M565 68C569.418 68 573 64.4183 573 60C573 55.5817 569.418 52 565 52C560.582 52 557 55.5817 557 60C557 64.4183 560.582 68 565 68Z" fill="#0A0A0A"/>
<path d="M621 68C625.418 68 629 64.4183 629 60C629 55.5817 625.418 52 621 52C616.582 52 613 55.5817 613 60C613 64.4183 616.582 68 621 68Z" fill="#0A0A0A"/>
<path opacity="0.35" d="M677 68C681.418 68 685 64.4183 685 60C685 55.5817 681.418 52 677 52C672.582 52 669 55.5817 669 60C669 64.4183 672.582 68 677 68Z" fill="#0A0A0A"/>
<path d="M733 68C737.418 68 741 64.4183 741 60C741 55.5817 737.418 52 733 52C728.582 52 725 55.5817 725 60C725 64.4183 728.582 68 733 68Z" fill="#0A0A0A"/>
<path opacity="0.35" d="M789 68C793.418 68 797 64.4183 797 60C797 55.5817 793.418 52 789 52C784.582 52 781 55.5817 781 60C781 64.4183 784.582 68 789 68Z" fill="#0A0A0A"/>
<path opacity="0.35" d="M845 68C849.418 68 853 64.4183 853 60C853 55.5817 849.418 52 845 52C840.582 52 837 55.5817 837 60C837 64.4183 840.582 68 845 68Z" fill="#0A0A0A"/>
<path opacity="0.35" d="M901 68C905.418 68 909 64.4183 909 60C909 55.5817 905.418 52 901 52C896.582 52 893 55.5817 893 60C893 64.4183 896.582 68 901 68Z" fill="#0A0A0A"/>
<path opacity="0.35" d="M957 68C961.418 68 965 64.4183 965 60C965 55.5817 961.418 52 957 52C952.582 52 949 55.5817 949 60C949 64.4183 952.582 68 957 68Z" fill="#0A0A0A"/>
<path opacity="0.35" d="M1014 68C1018.42 68 1022 64.4183 1022 60C1022 55.5817 1018.42 52 1014 52C1009.58 52 1006 55.5817 1006 60C1006 64.4183 1009.58 68 1014 68Z" fill="#0A0A0A"/>
<path opacity="0.35" d="M4 124C8.41828 124 12 120.418 12 116C12 111.582 8.41828 108 4 108C-0.418278 108 -4 111.582 -4 116C-4 120.418 -0.418278 124 4 124Z" fill="#0A0A0A"/>
<path opacity="0.35" d="M60 124C64.4183 124 68 120.418 68 116C68 111.582 64.4183 108 60 108C55.5817 108 52 111.582 52 116C52 120.418 55.5817 124 60 124Z" fill="#0A0A0A"/>
<path opacity="0.35" d="M116 124C120.418 124 124 120.418 124 116C124 111.582 120.418 108 116 108C111.582 108 108 111.582 108 116C108 120.418 111.582 124 116 124Z" fill="#0A0A0A"/>
<path d="M173 124C177.418 124 181 120.418 181 116C181 111.582 177.418 108 173 108C168.582 108 165 111.582 165 116C165 120.418 168.582 124 173 124Z" fill="#0A0A0A"/>
<path d="M229 124C233.418 124 237 120.418 237 116C237 111.582 233.418 108 229 108C224.582 108 221 111.582 221 116C221 120.418 224.582 124 229 124Z" fill="#0A0A0A"/>
<path opacity="0.35" d="M285 124C289.418 124 293 120.418 293 116C293 111.582 289.418 108 285 108C280.582 108 277 111.582 277 116C277 120.418 280.582 124 285 124Z" fill="#0A0A0A"/>
<path opacity="0.35" d="M341 124C345.418 124 349 120.418 349 116C349 111.582 345.418 108 341 108C336.582 108 333 111.582 333 116C333 120.418 336.582 124 341 124Z" fill="#0A0A0A"/>
<path opacity="0.35" d="M397 124C401.418 124 405 120.418 405 116C405 111.582 401.418 108 397 108C392.582 108 389 111.582 389 116C389 120.418 392.582 124 397 124Z" fill="#0A0A0A"/>
<path opacity="0.35" d="M453 124C457.418 124 461 120.418 461 116C461 111.582 457.418 108 453 108C448.582 108 445 111.582 445 116C445 120.418 448.582 124 453 124Z" fill="#0A0A0A"/>
<path opacity="0.35" d="M509 124C513.418 124 517 120.418 517 116C517 111.582 513.418 108 509 108C504.582 108 501 111.582 501 116C501 120.418 504.582 124 509 124Z" fill="#0A0A0A"/>
<path opacity="0.35" d="M565 124C569.418 124 573 120.418 573 116C573 111.582 569.418 108 565 108C560.582 108 557 111.582 557 116C557 120.418 560.582 124 565 124Z" fill="#0A0A0A"/>
<path opacity="0.35" d="M621 124C625.418 124 629 120.418 629 116C629 111.582 625.418 108 621 108C616.582 108 613 111.582 613 116C613 120.418 616.582 124 621 124Z" fill="#0A0A0A"/>
<path opacity="0.35" d="M677 124C681.418 124 685 120.418 685 116C685 111.582 681.418 108 677 108C672.582 108 669 111.582 669 116C669 120.418 672.582 124 677 124Z" fill="#0A0A0A"/>
<path opacity="0.35" d="M733 124C737.418 124 741 120.418 741 116C741 111.582 737.418 108 733 108C728.582 108 725 111.582 725 116C725 120.418 728.582 124 733 124Z" fill="#0A0A0A"/>
<path d="M789 124C793.418 124 797 120.418 797 116C797 111.582 793.418 108 789 108C784.582 108 781 111.582 781 116C781 120.418 784.582 124 789 124Z" fill="#0A0A0A"/>
<path d="M845 124C849.418 124 853 120.418 853 116C853 111.582 849.418 108 845 108C840.582 108 837 111.582 837 116C837 120.418 840.582 124 845 124Z" fill="#0A0A0A"/>
<path opacity="0.35" d="M901 124C905.418 124 909 120.418 909 116C909 111.582 905.418 108 901 108C896.582 108 893 111.582 893 116C893 120.418 896.582 124 901 124Z" fill="#0A0A0A"/>
<path opacity="0.35" d="M957 124C961.418 124 965 120.418 965 116C965 111.582 961.418 108 957 108C952.582 108 949 111.582 949 116C949 120.418 952.582 124 957 124Z" fill="#0A0A0A"/>
<path opacity="0.35" d="M1014 124C1018.42 124 1022 120.418 1022 116C1022 111.582 1018.42 108 1014 108C1009.58 108 1006 111.582 1006 116C1006 120.418 1009.58 124 1014 124Z" fill="#0A0A0A"/>
<path opacity="0.35" d="M4 181C8.41828 181 12 177.418 12 173C12 168.582 8.41828 165 4 165C-0.418278 165 -4 168.582 -4 173C-4 177.418 -0.418278 181 4 181Z" fill="#0A0A0A"/>
<path d="M60 181C64.4183 181 68 177.418 68 173C68 168.582 64.4183 165 60 165C55.5817 165 52 168.582 52 173C52 177.418 55.5817 181 60 181Z" fill="#0A0A0A"/>
<path d="M116 181C120.418 181 124 177.418 124 173C124 168.582 120.418 165 116 165C111.582 165 108 168.582 108 173C108 177.418 111.582 181 116 181Z" fill="#0A0A0A"/>
<path opacity="0.35" d="M173 181C177.418 181 181 177.418 181 173C181 168.582 177.418 165 173 165C168.582 165 165 168.582 165 173C165 177.418 168.582 181 173 181Z" fill="#0A0A0A"/>
<path d="M229 181C233.418 181 237 177.418 237 173C237 168.582 233.418 165 229 165C224.582 165 221 168.582 221 173C221 177.418 224.582 181 229 181Z" fill="#0A0A0A"/>
<path opacity="0.35" d="M285 181C289.418 181 293 177.418 293 173C293 168.582 289.418 165 285 165C280.582 165 277 168.582 277 173C277 177.418 280.582 181 285 181Z" fill="#0A0A0A"/>
<path d="M341 181C345.418 181 349 177.418 349 173C349 168.582 345.418 165 341 165C336.582 165 333 168.582 333 173C333 177.418 336.582 181 341 181Z" fill="#0A0A0A"/>
<path opacity="0.35" d="M397 181C401.418 181 405 177.418 405 173C405 168.582 401.418 165 397 165C392.582 165 389 168.582 389 173C389 177.418 392.582 181 397 181Z" fill="#0A0A0A"/>
<path opacity="0.35" d="M453 181C457.418 181 461 177.418 461 173C461 168.582 457.418 165 453 165C448.582 165 445 168.582 445 173C445 177.418 448.582 181 453 181Z" fill="#0A0A0A"/>
<path d="M509 181C513.418 181 517 177.418 517 173C517 168.582 513.418 165 509 165C504.582 165 501 168.582 501 173C501 177.418 504.582 181 509 181Z" fill="#0A0A0A"/>
<path d="M565 181C569.418 181 573 177.418 573 173C573 168.582 569.418 165 565 165C560.582 165 557 168.582 557 173C557 177.418 560.582 181 565 181Z" fill="#0A0A0A"/>
<path opacity="0.35" d="M621 181C625.418 181 629 177.418 629 173C629 168.582 625.418 165 621 165C616.582 165 613 168.582 613 173C613 177.418 616.582 181 621 181Z" fill="#0A0A0A"/>
<path opacity="0.35" d="M677 181C681.418 181 685 177.418 685 173C685 168.582 681.418 165 677 165C672.582 165 669 168.582 669 173C669 177.418 672.582 181 677 181Z" fill="#0A0A0A"/>
<path opacity="0.35" d="M733 181C737.418 181 741 177.418 741 173C741 168.582 737.418 165 733 165C728.582 165 725 168.582 725 173C725 177.418 728.582 181 733 181Z" fill="#0A0A0A"/>
<path opacity="0.35" d="M789 181C793.418 181 797 177.418 797 173C797 168.582 793.418 165 789 165C784.582 165 781 168.582 781 173C781 177.418 784.582 181 789 181Z" fill="#0A0A0A"/>
<path opacity="0.1" d="M845 181C849.418 181 853 177.418 853 173C853 168.582 849.418 165 845 165C840.582 165 837 168.582 837 173C837 177.418 840.582 181 845 181Z" fill="#0A0A0A"/>
<path opacity="0.35" d="M901 181C905.418 181 909 177.418 909 173C909 168.582 905.418 165 901 165C896.582 165 893 168.582 893 173C893 177.418 896.582 181 901 181Z" fill="#0A0A0A"/>
<path opacity="0.35" d="M957 181C961.418 181 965 177.418 965 173C965 168.582 961.418 165 957 165C952.582 165 949 168.582 949 173C949 177.418 952.582 181 957 181Z" fill="#0A0A0A"/>
<path opacity="0.35" d="M1014 181C1018.42 181 1022 177.418 1022 173C1022 168.582 1018.42 165 1014 165C1009.58 165 1006 168.582 1006 173C1006 177.418 1009.58 181 1014 181Z" fill="#0A0A0A"/>
<path opacity="0.35" d="M4 237C8.41828 237 12 233.418 12 229C12 224.582 8.41828 221 4 221C-0.418278 221 -4 224.582 -4 229C-4 233.418 -0.418278 237 4 237Z" fill="#0A0A0A"/>
<path opacity="0.35" d="M60 237C64.4183 237 68 233.418 68 229C68 224.582 64.4183 221 60 221C55.5817 221 52 224.582 52 229C52 233.418 55.5817 237 60 237Z" fill="#0A0A0A"/>
<path opacity="0.35" d="M116 237C120.418 237 124 233.418 124 229C124 224.582 120.418 221 116 221C111.582 221 108 224.582 108 229C108 233.418 111.582 237 116 237Z" fill="#0A0A0A"/>
<path opacity="0.35" d="M173 237C177.418 237 181 233.418 181 229C181 224.582 177.418 221 173 221C168.582 221 165 224.582 165 229C165 233.418 168.582 237 173 237Z" fill="#0A0A0A"/>
<path opacity="0.35" d="M229 237C233.418 237 237 233.418 237 229C237 224.582 233.418 221 229 221C224.582 221 221 224.582 221 229C221 233.418 224.582 237 229 237Z" fill="#0A0A0A"/>
<path opacity="0.35" d="M285 237C289.418 237 293 233.418 293 229C293 224.582 289.418 221 285 221C280.582 221 277 224.582 277 229C277 233.418 280.582 237 285 237Z" fill="#0A0A0A"/>
<path opacity="0.35" d="M341 237C345.418 237 349 233.418 349 229C349 224.582 345.418 221 341 221C336.582 221 333 224.582 333 229C333 233.418 336.582 237 341 237Z" fill="#0A0A0A"/>
<path d="M397 237C401.418 237 405 233.418 405 229C405 224.582 401.418 221 397 221C392.582 221 389 224.582 389 229C389 233.418 392.582 237 397 237Z" fill="#0A0A0A"/>
<path opacity="0.35" d="M453 237C457.418 237 461 233.418 461 229C461 224.582 457.418 221 453 221C448.582 221 445 224.582 445 229C445 233.418 448.582 237 453 237Z" fill="#0A0A0A"/>
<path d="M509 237C513.418 237 517 233.418 517 229C517 224.582 513.418 221 509 221C504.582 221 501 224.582 501 229C501 233.418 504.582 237 509 237Z" fill="#0A0A0A"/>
<path opacity="0.35" d="M565 237C569.418 237 573 233.418 573 229C573 224.582 569.418 221 565 221C560.582 221 557 224.582 557 229C557 233.418 560.582 237 565 237Z" fill="#0A0A0A"/>
<path d="M621 237C625.418 237 629 233.418 629 229C629 224.582 625.418 221 621 221C616.582 221 613 224.582 613 229C613 233.418 616.582 237 621 237Z" fill="#0A0A0A"/>
<path opacity="0.35" d="M677 237C681.418 237 685 233.418 685 229C685 224.582 681.418 221 677 221C672.582 221 669 224.582 669 229C669 233.418 672.582 237 677 237Z" fill="#0A0A0A"/>
<path d="M733 237C737.418 237 741 233.418 741 229C741 224.582 737.418 221 733 221C728.582 221 725 224.582 725 229C725 233.418 728.582 237 733 237Z" fill="#0A0A0A"/>
<path opacity="0.35" d="M789 237C793.418 237 797 233.418 797 229C797 224.582 793.418 221 789 221C784.582 221 781 224.582 781 229C781 233.418 784.582 237 789 237Z" fill="#0A0A0A"/>
<path opacity="0.35" d="M845 237C849.418 237 853 233.418 853 229C853 224.582 849.418 221 845 221C840.582 221 837 224.582 837 229C837 233.418 840.582 237 845 237Z" fill="#0A0A0A"/>
<path opacity="0.35" d="M901 237C905.418 237 909 233.418 909 229C909 224.582 905.418 221 901 221C896.582 221 893 224.582 893 229C893 233.418 896.582 237 901 237Z" fill="#0A0A0A"/>
<path opacity="0.35" d="M957 237C961.418 237 965 233.418 965 229C965 224.582 961.418 221 957 221C952.582 221 949 224.582 949 229C949 233.418 952.582 237 957 237Z" fill="#0A0A0A"/>
<path opacity="0.35" d="M1014 237C1018.42 237 1022 233.418 1022 229C1022 224.582 1018.42 221 1014 221C1009.58 221 1006 224.582 1006 229C1006 233.418 1009.58 237 1014 237Z" fill="#0A0A0A"/>
<path opacity="0.35" d="M4 293C8.41828 293 12 289.418 12 285C12 280.582 8.41828 277 4 277C-0.418278 277 -4 280.582 -4 285C-4 289.418 -0.418278 293 4 293Z" fill="#0A0A0A"/>
<path opacity="0.35" d="M60 293C64.4183 293 68 289.418 68 285C68 280.582 64.4183 277 60 277C55.5817 277 52 280.582 52 285C52 289.418 55.5817 293 60 293Z" fill="#0A0A0A"/>
<path d="M116 293C120.418 293 124 289.418 124 285C124 280.582 120.418 277 116 277C111.582 277 108 280.582 108 285C108 289.418 111.582 293 116 293Z" fill="#0A0A0A"/>
<path opacity="0.35" d="M173 293C177.418 293 181 289.418 181 285C181 280.582 177.418 277 173 277C168.582 277 165 280.582 165 285C165 289.418 168.582 293 173 293Z" fill="#0A0A0A"/>
<path opacity="0.35" d="M229 293C233.418 293 237 289.418 237 285C237 280.582 233.418 277 229 277C224.582 277 221 280.582 221 285C221 289.418 224.582 293 229 293Z" fill="#0A0A0A"/>
<path opacity="0.35" d="M285 293C289.418 293 293 289.418 293 285C293 280.582 289.418 277 285 277C280.582 277 277 280.582 277 285C277 289.418 280.582 293 285 293Z" fill="#0A0A0A"/>
<path opacity="0.1" d="M341 293C345.418 293 349 289.418 349 285C349 280.582 345.418 277 341 277C336.582 277 333 280.582 333 285C333 289.418 336.582 293 341 293Z" fill="#0A0A0A"/>
<path d="M397 293C401.418 293 405 289.418 405 285C405 280.582 401.418 277 397 277C392.582 277 389 280.582 389 285C389 289.418 392.582 293 397 293Z" fill="#0A0A0A"/>
<path opacity="0.35" d="M453 293C457.418 293 461 289.418 461 285C461 280.582 457.418 277 453 277C448.582 277 445 280.582 445 285C445 289.418 448.582 293 453 293Z" fill="#0A0A0A"/>
<path d="M509 293C513.418 293 517 289.418 517 285C517 280.582 513.418 277 509 277C504.582 277 501 280.582 501 285C501 289.418 504.582 293 509 293Z" fill="#0A0A0A"/>
<path opacity="0.35" d="M565 293C569.418 293 573 289.418 573 285C573 280.582 569.418 277 565 277C560.582 277 557 280.582 557 285C557 289.418 560.582 293 565 293Z" fill="#0A0A0A"/>
<path opacity="0.35" d="M621 293C625.418 293 629 289.418 629 285C629 280.582 625.418 277 621 277C616.582 277 613 280.582 613 285C613 289.418 616.582 293 621 293Z" fill="#0A0A0A"/>
<path opacity="0.35" d="M677 293C681.418 293 685 289.418 685 285C685 280.582 681.418 277 677 277C672.582 277 669 280.582 669 285C669 289.418 672.582 293 677 293Z" fill="#0A0A0A"/>
<path opacity="0.35" d="M733 293C737.418 293 741 289.418 741 285C741 280.582 737.418 277 733 277C728.582 277 725 280.582 725 285C725 289.418 728.582 293 733 293Z" fill="#0A0A0A"/>
<path opacity="0.35" d="M789 293C793.418 293 797 289.418 797 285C797 280.582 793.418 277 789 277C784.582 277 781 280.582 781 285C781 289.418 784.582 293 789 293Z" fill="#0A0A0A"/>
<path opacity="0.35" d="M845 293C849.418 293 853 289.418 853 285C853 280.582 849.418 277 845 277C840.582 277 837 280.582 837 285C837 289.418 840.582 293 845 293Z" fill="#0A0A0A"/>
<path opacity="0.35" d="M901 293C905.418 293 909 289.418 909 285C909 280.582 905.418 277 901 277C896.582 277 893 280.582 893 285C893 289.418 896.582 293 901 293Z" fill="#0A0A0A"/>
<path d="M957 293C961.418 293 965 289.418 965 285C965 280.582 961.418 277 957 277C952.582 277 949 280.582 949 285C949 289.418 952.582 293 957 293Z" fill="#0A0A0A"/>
<path opacity="0.35" d="M1014 293C1018.42 293 1022 289.418 1022 285C1022 280.582 1018.42 277 1014 277C1009.58 277 1006 280.582 1006 285C1006 289.418 1009.58 293 1014 293Z" fill="#0A0A0A"/>
<path opacity="0.35" d="M4 349C8.41828 349 12 345.418 12 341C12 336.582 8.41828 333 4 333C-0.418278 333 -4 336.582 -4 341C-4 345.418 -0.418278 349 4 349Z" fill="#0A0A0A"/>
<path d="M60 349C64.4183 349 68 345.418 68 341C68 336.582 64.4183 333 60 333C55.5817 333 52 336.582 52 341C52 345.418 55.5817 349 60 349Z" fill="#0A0A0A"/>
<path opacity="0.35" d="M116 349C120.418 349 124 345.418 124 341C124 336.582 120.418 333 116 333C111.582 333 108 336.582 108 341C108 345.418 111.582 349 116 349Z" fill="#0A0A0A"/>
<path opacity="0.35" d="M173 349C177.418 349 181 345.418 181 341C181 336.582 177.418 333 173 333C168.582 333 165 336.582 165 341C165 345.418 168.582 349 173 349Z" fill="#0A0A0A"/>
<path opacity="0.35" d="M229 349C233.418 349 237 345.418 237 341C237 336.582 233.418 333 229 333C224.582 333 221 336.582 221 341C221 345.418 224.582 349 229 349Z" fill="#0A0A0A"/>
<path d="M285 349C289.418 349 293 345.418 293 341C293 336.582 289.418 333 285 333C280.582 333 277 336.582 277 341C277 345.418 280.582 349 285 349Z" fill="#0A0A0A"/>
<path d="M341 349C345.418 349 349 345.418 349 341C349 336.582 345.418 333 341 333C336.582 333 333 336.582 333 341C333 345.418 336.582 349 341 349Z" fill="#0A0A0A"/>
<path opacity="0.35" d="M397 349C401.418 349 405 345.418 405 341C405 336.582 401.418 333 397 333C392.582 333 389 336.582 389 341C389 345.418 392.582 349 397 349Z" fill="#0A0A0A"/>
<path opacity="0.35" d="M453 349C457.418 349 461 345.418 461 341C461 336.582 457.418 333 453 333C448.582 333 445 336.582 445 341C445 345.418 448.582 349 453 349Z" fill="#0A0A0A"/>
<path opacity="0.35" d="M509 349C513.418 349 517 345.418 517 341C517 336.582 513.418 333 509 333C504.582 333 501 336.582 501 341C501 345.418 504.582 349 509 349Z" fill="#0A0A0A"/>
<path opacity="0.35" d="M565 349C569.418 349 573 345.418 573 341C573 336.582 569.418 333 565 333C560.582 333 557 336.582 557 341C557 345.418 560.582 349 565 349Z" fill="#0A0A0A"/>
<path opacity="0.35" d="M621 349C625.418 349 629 345.418 629 341C629 336.582 625.418 333 621 333C616.582 333 613 336.582 613 341C613 345.418 616.582 349 621 349Z" fill="#0A0A0A"/>
<path opacity="0.35" d="M677 349C681.418 349 685 345.418 685 341C685 336.582 681.418 333 677 333C672.582 333 669 336.582 669 341C669 345.418 672.582 349 677 349Z" fill="#0A0A0A"/>
<path opacity="0.1" d="M733 349C737.418 349 741 345.418 741 341C741 336.582 737.418 333 733 333C728.582 333 725 336.582 725 341C725 345.418 728.582 349 733 349Z" fill="#0A0A0A"/>
<path opacity="0.35" d="M789 349C793.418 349 797 345.418 797 341C797 336.582 793.418 333 789 333C784.582 333 781 336.582 781 341C781 345.418 784.582 349 789 349Z" fill="#0A0A0A"/>
<path d="M845 349C849.418 349 853 345.418 853 341C853 336.582 849.418 333 845 333C840.582 333 837 336.582 837 341C837 345.418 840.582 349 845 349Z" fill="#0A0A0A"/>
<path opacity="0.35" d="M901 349C905.418 349 909 345.418 909 341C909 336.582 905.418 333 901 333C896.582 333 893 336.582 893 341C893 345.418 896.582 349 901 349Z" fill="#0A0A0A"/>
<path d="M957 349C961.418 349 965 345.418 965 341C965 336.582 961.418 333 957 333C952.582 333 949 336.582 949 341C949 345.418 952.582 349 957 349Z" fill="#0A0A0A"/>
<path opacity="0.35" d="M1014 349C1018.42 349 1022 345.418 1022 341C1022 336.582 1018.42 333 1014 333C1009.58 333 1006 336.582 1006 341C1006 345.418 1009.58 349 1014 349Z" fill="#0A0A0A"/>
<path opacity="0.35" d="M4 405C8.41828 405 12 401.418 12 397C12 392.582 8.41828 389 4 389C-0.418278 389 -4 392.582 -4 397C-4 401.418 -0.418278 405 4 405Z" fill="#0A0A0A"/>
<path opacity="0.35" d="M60 405C64.4183 405 68 401.418 68 397C68 392.582 64.4183 389 60 389C55.5817 389 52 392.582 52 397C52 401.418 55.5817 405 60 405Z" fill="#0A0A0A"/>
<path opacity="0.35" d="M116 405C120.418 405 124 401.418 124 397C124 392.582 120.418 389 116 389C111.582 389 108 392.582 108 397C108 401.418 111.582 405 116 405Z" fill="#0A0A0A"/>
<path d="M173 405C177.418 405 181 401.418 181 397C181 392.582 177.418 389 173 389C168.582 389 165 392.582 165 397C165 401.418 168.582 405 173 405Z" fill="#0A0A0A"/>
<path d="M229 405C233.418 405 237 401.418 237 397C237 392.582 233.418 389 229 389C224.582 389 221 392.582 221 397C221 401.418 224.582 405 229 405Z" fill="#0A0A0A"/>
<path opacity="0.35" d="M285 405C289.418 405 293 401.418 293 397C293 392.582 289.418 389 285 389C280.582 389 277 392.582 277 397C277 401.418 280.582 405 285 405Z" fill="#0A0A0A"/>
<path opacity="0.35" d="M341 405C345.418 405 349 401.418 349 397C349 392.582 345.418 389 341 389C336.582 389 333 392.582 333 397C333 401.418 336.582 405 341 405Z" fill="#0A0A0A"/>
<path d="M397 405C401.418 405 405 401.418 405 397C405 392.582 401.418 389 397 389C392.582 389 389 392.582 389 397C389 401.418 392.582 405 397 405Z" fill="#0A0A0A"/>
<path d="M453 405C457.418 405 461 401.418 461 397C461 392.582 457.418 389 453 389C448.582 389 445 392.582 445 397C445 401.418 448.582 405 453 405Z" fill="#0A0A0A"/>
<path opacity="0.35" d="M509 405C513.418 405 517 401.418 517 397C517 392.582 513.418 389 509 389C504.582 389 501 392.582 501 397C501 401.418 504.582 405 509 405Z" fill="#0A0A0A"/>
<path opacity="0.35" d="M565 405C569.418 405 573 401.418 573 397C573 392.582 569.418 389 565 389C560.582 389 557 392.582 557 397C557 401.418 560.582 405 565 405Z" fill="#0A0A0A"/>
<path d="M621 405C625.418 405 629 401.418 629 397C629 392.582 625.418 389 621 389C616.582 389 613 392.582 613 397C613 401.418 616.582 405 621 405Z" fill="#0A0A0A"/>
<path d="M677 405C681.418 405 685 401.418 685 397C685 392.582 681.418 389 677 389C672.582 389 669 392.582 669 397C669 401.418 672.582 405 677 405Z" fill="#0A0A0A"/>
<path opacity="0.1" d="M733 405C737.418 405 741 401.418 741 397C741 392.582 737.418 389 733 389C728.582 389 725 392.582 725 397C725 401.418 728.582 405 733 405Z" fill="#0A0A0A"/>
<path opacity="0.35" d="M789 405C793.418 405 797 401.418 797 397C797 392.582 793.418 389 789 389C784.582 389 781 392.582 781 397C781 401.418 784.582 405 789 405Z" fill="#0A0A0A"/>
<path opacity="0.35" d="M845 405C849.418 405 853 401.418 853 397C853 392.582 849.418 389 845 389C840.582 389 837 392.582 837 397C837 401.418 840.582 405 845 405Z" fill="#0A0A0A"/>
<path opacity="0.35" d="M901 405C905.418 405 909 401.418 909 397C909 392.582 905.418 389 901 389C896.582 389 893 392.582 893 397C893 401.418 896.582 405 901 405Z" fill="#0A0A0A"/>
<path opacity="0.35" d="M957 405C961.418 405 965 401.418 965 397C965 392.582 961.418 389 957 389C952.582 389 949 392.582 949 397C949 401.418 952.582 405 957 405Z" fill="#0A0A0A"/>
<path opacity="0.35" d="M1014 405C1018.42 405 1022 401.418 1022 397C1022 392.582 1018.42 389 1014 389C1009.58 389 1006 392.582 1006 397C1006 401.418 1009.58 405 1014 405Z" fill="#0A0A0A"/>
<path opacity="0.35" d="M4 461C8.41828 461 12 457.418 12 453C12 448.582 8.41828 445 4 445C-0.418278 445 -4 448.582 -4 453C-4 457.418 -0.418278 461 4 461Z" fill="#0A0A0A"/>
<path opacity="0.35" d="M60 461C64.4183 461 68 457.418 68 453C68 448.582 64.4183 445 60 445C55.5817 445 52 448.582 52 453C52 457.418 55.5817 461 60 461Z" fill="#0A0A0A"/>
<path opacity="0.35" d="M116 461C120.418 461 124 457.418 124 453C124 448.582 120.418 445 116 445C111.582 445 108 448.582 108 453C108 457.418 111.582 461 116 461Z" fill="#0A0A0A"/>
<path opacity="0.35" d="M173 461C177.418 461 181 457.418 181 453C181 448.582 177.418 445 173 445C168.582 445 165 448.582 165 453C165 457.418 168.582 461 173 461Z" fill="#0A0A0A"/>
<path d="M229 461C233.418 461 237 457.418 237 453C237 448.582 233.418 445 229 445C224.582 445 221 448.582 221 453C221 457.418 224.582 461 229 461Z" fill="#0A0A0A"/>
<path opacity="0.35" d="M285 461C289.418 461 293 457.418 293 453C293 448.582 289.418 445 285 445C280.582 445 277 448.582 277 453C277 457.418 280.582 461 285 461Z" fill="#0A0A0A"/>
<path opacity="0.35" d="M341 461C345.418 461 349 457.418 349 453C349 448.582 345.418 445 341 445C336.582 445 333 448.582 333 453C333 457.418 336.582 461 341 461Z" fill="#0A0A0A"/>
<path opacity="0.35" d="M397 461C401.418 461 405 457.418 405 453C405 448.582 401.418 445 397 445C392.582 445 389 448.582 389 453C389 457.418 392.582 461 397 461Z" fill="#0A0A0A"/>
<path opacity="0.35" d="M453 461C457.418 461 461 457.418 461 453C461 448.582 457.418 445 453 445C448.582 445 445 448.582 445 453C445 457.418 448.582 461 453 461Z" fill="#0A0A0A"/>
<path opacity="0.35" d="M509 461C513.418 461 517 457.418 517 453C517 448.582 513.418 445 509 445C504.582 445 501 448.582 501 453C501 457.418 504.582 461 509 461Z" fill="#0A0A0A"/>
<path opacity="0.35" d="M565 461C569.418 461 573 457.418 573 453C573 448.582 569.418 445 565 445C560.582 445 557 448.582 557 453C557 457.418 560.582 461 565 461Z" fill="#0A0A0A"/>
<path opacity="0.35" d="M621 461C625.418 461 629 457.418 629 453C629 448.582 625.418 445 621 445C616.582 445 613 448.582 613 453C613 457.418 616.582 461 621 461Z" fill="#0A0A0A"/>
<path opacity="0.35" d="M677 461C681.418 461 685 457.418 685 453C685 448.582 681.418 445 677 445C672.582 445 669 448.582 669 453C669 457.418 672.582 461 677 461Z" fill="#0A0A0A"/>
<path opacity="0.35" d="M733 461C737.418 461 741 457.418 741 453C741 448.582 737.418 445 733 445C728.582 445 725 448.582 725 453C725 457.418 728.582 461 733 461Z" fill="#0A0A0A"/>
<path opacity="0.35" d="M789 461C793.418 461 797 457.418 797 453C797 448.582 793.418 445 789 445C784.582 445 781 448.582 781 453C781 457.418 784.582 461 789 461Z" fill="#0A0A0A"/>
<path opacity="0.35" d="M845 461C849.418 461 853 457.418 853 453C853 448.582 849.418 445 845 445C840.582 445 837 448.582 837 453C837 457.418 840.582 461 845 461Z" fill="#0A0A0A"/>
<path opacity="0.35" d="M901 461C905.418 461 909 457.418 909 453C909 448.582 905.418 445 901 445C896.582 445 893 448.582 893 453C893 457.418 896.582 461 901 461Z" fill="#0A0A0A"/>
<path d="M957 461C961.418 461 965 457.418 965 453C965 448.582 961.418 445 957 445C952.582 445 949 448.582 949 453C949 457.418 952.582 461 957 461Z" fill="#0A0A0A"/>
<path opacity="0.35" d="M1014 461C1018.42 461 1022 457.418 1022 453C1022 448.582 1018.42 445 1014 445C1009.58 445 1006 448.582 1006 453C1006 457.418 1009.58 461 1014 461Z" fill="#0A0A0A"/>
<path opacity="0.35" d="M4 517C8.41828 517 12 513.418 12 509C12 504.582 8.41828 501 4 501C-0.418278 501 -4 504.582 -4 509C-4 513.418 -0.418278 517 4 517Z" fill="#0A0A0A"/>
<path opacity="0.35" d="M60 517C64.4183 517 68 513.418 68 509C68 504.582 64.4183 501 60 501C55.5817 501 52 504.582 52 509C52 513.418 55.5817 517 60 517Z" fill="#0A0A0A"/>
<path opacity="0.35" d="M116 517C120.418 517 124 513.418 124 509C124 504.582 120.418 501 116 501C111.582 501 108 504.582 108 509C108 513.418 111.582 517 116 517Z" fill="#0A0A0A"/>
<path opacity="0.35" d="M173 517C177.418 517 181 513.418 181 509C181 504.582 177.418 501 173 501C168.582 501 165 504.582 165 509C165 513.418 168.582 517 173 517Z" fill="#0A0A0A"/>
<path opacity="0.35" d="M229 517C233.418 517 237 513.418 237 509C237 504.582 233.418 501 229 501C224.582 501 221 504.582 221 509C221 513.418 224.582 517 229 517Z" fill="#0A0A0A"/>
<path opacity="0.35" d="M285 517C289.418 517 293 513.418 293 509C293 504.582 289.418 501 285 501C280.582 501 277 504.582 277 509C277 513.418 280.582 517 285 517Z" fill="#0A0A0A"/>
<path d="M341 517C345.418 517 349 513.418 349 509C349 504.582 345.418 501 341 501C336.582 501 333 504.582 333 509C333 513.418 336.582 517 341 517Z" fill="#0A0A0A"/>
<path opacity="0.35" d="M397 517C401.418 517 405 513.418 405 509C405 504.582 401.418 501 397 501C392.582 501 389 504.582 389 509C389 513.418 392.582 517 397 517Z" fill="#0A0A0A"/>
<path opacity="0.35" d="M453 517C457.418 517 461 513.418 461 509C461 504.582 457.418 501 453 501C448.582 501 445 504.582 445 509C445 513.418 448.582 517 453 517Z" fill="#0A0A0A"/>
<path opacity="0.35" d="M509 517C513.418 517 517 513.418 517 509C517 504.582 513.418 501 509 501C504.582 501 501 504.582 501 509C501 513.418 504.582 517 509 517Z" fill="#0A0A0A"/>
<path opacity="0.35" d="M565 517C569.418 517 573 513.418 573 509C573 504.582 569.418 501 565 501C560.582 501 557 504.582 557 509C557 513.418 560.582 517 565 517Z" fill="#0A0A0A"/>
<path d="M621 517C625.418 517 629 513.418 629 509C629 504.582 625.418 501 621 501C616.582 501 613 504.582 613 509C613 513.418 616.582 517 621 517Z" fill="#0A0A0A"/>
<path d="M677 517C681.418 517 685 513.418 685 509C685 504.582 681.418 501 677 501C672.582 501 669 504.582 669 509C669 513.418 672.582 517 677 517Z" fill="#0A0A0A"/>
<path opacity="0.35" d="M733 517C737.418 517 741 513.418 741 509C741 504.582 737.418 501 733 501C728.582 501 725 504.582 725 509C725 513.418 728.582 517 733 517Z" fill="#0A0A0A"/>
<path opacity="0.35" d="M789 517C793.418 517 797 513.418 797 509C797 504.582 793.418 501 789 501C784.582 501 781 504.582 781 509C781 513.418 784.582 517 789 517Z" fill="#0A0A0A"/>
<path opacity="0.35" d="M845 517C849.418 517 853 513.418 853 509C853 504.582 849.418 501 845 501C840.582 501 837 504.582 837 509C837 513.418 840.582 517 845 517Z" fill="#0A0A0A"/>
<path d="M901 517C905.418 517 909 513.418 909 509C909 504.582 905.418 501 901 501C896.582 501 893 504.582 893 509C893 513.418 896.582 517 901 517Z" fill="#0A0A0A"/>
<path opacity="0.35" d="M957 517C961.418 517 965 513.418 965 509C965 504.582 961.418 501 957 501C952.582 501 949 504.582 949 509C949 513.418 952.582 517 957 517Z" fill="#0A0A0A"/>
<path opacity="0.35" d="M1014 517C1018.42 517 1022 513.418 1022 509C1022 504.582 1018.42 501 1014 501C1009.58 501 1006 504.582 1006 509C1006 513.418 1009.58 517 1014 517Z" fill="#0A0A0A"/>
<path opacity="0.35" d="M4 573C8.41828 573 12 569.418 12 565C12 560.582 8.41828 557 4 557C-0.418278 557 -4 560.582 -4 565C-4 569.418 -0.418278 573 4 573Z" fill="#0A0A0A"/>
<path opacity="0.35" d="M60 573C64.4183 573 68 569.418 68 565C68 560.582 64.4183 557 60 557C55.5817 557 52 560.582 52 565C52 569.418 55.5817 573 60 573Z" fill="#0A0A0A"/>
<path d="M116 573C120.418 573 124 569.418 124 565C124 560.582 120.418 557 116 557C111.582 557 108 560.582 108 565C108 569.418 111.582 573 116 573Z" fill="#0A0A0A"/>
<path d="M173 573C177.418 573 181 569.418 181 565C181 560.582 177.418 557 173 557C168.582 557 165 560.582 165 565C165 569.418 168.582 573 173 573Z" fill="#0A0A0A"/>
<path opacity="0.35" d="M229 573C233.418 573 237 569.418 237 565C237 560.582 233.418 557 229 557C224.582 557 221 560.582 221 565C221 569.418 224.582 573 229 573Z" fill="#0A0A0A"/>
<path opacity="0.35" d="M285 573C289.418 573 293 569.418 293 565C293 560.582 289.418 557 285 557C280.582 557 277 560.582 277 565C277 569.418 280.582 573 285 573Z" fill="#0A0A0A"/>
<path opacity="0.2" d="M341 573C345.418 573 349 569.418 349 565C349 560.582 345.418 557 341 557C336.582 557 333 560.582 333 565C333 569.418 336.582 573 341 573Z" fill="#0A0A0A"/>
<path opacity="0.35" d="M397 573C401.418 573 405 569.418 405 565C405 560.582 401.418 557 397 557C392.582 557 389 560.582 389 565C389 569.418 392.582 573 397 573Z" fill="#0A0A0A"/>
<path opacity="0.35" d="M453 573C457.418 573 461 569.418 461 565C461 560.582 457.418 557 453 557C448.582 557 445 560.582 445 565C445 569.418 448.582 573 453 573Z" fill="#0A0A0A"/>
<path d="M509 573C513.418 573 517 569.418 517 565C517 560.582 513.418 557 509 557C504.582 557 501 560.582 501 565C501 569.418 504.582 573 509 573Z" fill="#0A0A0A"/>
<path opacity="0.35" d="M565 573C569.418 573 573 569.418 573 565C573 560.582 569.418 557 565 557C560.582 557 557 560.582 557 565C557 569.418 560.582 573 565 573Z" fill="#0A0A0A"/>
<path opacity="0.35" d="M621 573C625.418 573 629 569.418 629 565C629 560.582 625.418 557 621 557C616.582 557 613 560.582 613 565C613 569.418 616.582 573 621 573Z" fill="#0A0A0A"/>
<path opacity="0.35" d="M677 573C681.418 573 685 569.418 685 565C685 560.582 681.418 557 677 557C672.582 557 669 560.582 669 565C669 569.418 672.582 573 677 573Z" fill="#0A0A0A"/>
<path opacity="0.35" d="M733 573C737.418 573 741 569.418 741 565C741 560.582 737.418 557 733 557C728.582 557 725 560.582 725 565C725 569.418 728.582 573 733 573Z" fill="#0A0A0A"/>
<path d="M789 573C793.418 573 797 569.418 797 565C797 560.582 793.418 557 789 557C784.582 557 781 560.582 781 565C781 569.418 784.582 573 789 573Z" fill="#0A0A0A"/>
<path opacity="0.35" d="M845 573C849.418 573 853 569.418 853 565C853 560.582 849.418 557 845 557C840.582 557 837 560.582 837 565C837 569.418 840.582 573 845 573Z" fill="#0A0A0A"/>
<path opacity="0.35" d="M901 573C905.418 573 909 569.418 909 565C909 560.582 905.418 557 901 557C896.582 557 893 560.582 893 565C893 569.418 896.582 573 901 573Z" fill="#0A0A0A"/>
<path opacity="0.35" d="M957 573C961.418 573 965 569.418 965 565C965 560.582 961.418 557 957 557C952.582 557 949 560.582 949 565C949 569.418 952.582 573 957 573Z" fill="#0A0A0A"/>
<path opacity="0.35" d="M1014 573C1018.42 573 1022 569.418 1022 565C1022 560.582 1018.42 557 1014 557C1009.58 557 1006 560.582 1006 565C1006 569.418 1009.58 573 1014 573Z" fill="#0A0A0A"/>
<path opacity="0.35" d="M4 629C8.41828 629 12 625.418 12 621C12 616.582 8.41828 613 4 613C-0.418278 613 -4 616.582 -4 621C-4 625.418 -0.418278 629 4 629Z" fill="#0A0A0A"/>
<path d="M60 629C64.4183 629 68 625.418 68 621C68 616.582 64.4183 613 60 613C55.5817 613 52 616.582 52 621C52 625.418 55.5817 629 60 629Z" fill="#0A0A0A"/>
<path opacity="0.35" d="M116 629C120.418 629 124 625.418 124 621C124 616.582 120.418 613 116 613C111.582 613 108 616.582 108 621C108 625.418 111.582 629 116 629Z" fill="#0A0A0A"/>
<path opacity="0.35" d="M173 629C177.418 629 181 625.418 181 621C181 616.582 177.418 613 173 613C168.582 613 165 616.582 165 621C165 625.418 168.582 629 173 629Z" fill="#0A0A0A"/>
<path opacity="0.35" d="M229 629C233.418 629 237 625.418 237 621C237 616.582 233.418 613 229 613C224.582 613 221 616.582 221 621C221 625.418 224.582 629 229 629Z" fill="#0A0A0A"/>
<path d="M285 629C289.418 629 293 625.418 293 621C293 616.582 289.418 613 285 613C280.582 613 277 616.582 277 621C277 625.418 280.582 629 285 629Z" fill="#0A0A0A"/>
<path opacity="0.35" d="M341 629C345.418 629 349 625.418 349 621C349 616.582 345.418 613 341 613C336.582 613 333 616.582 333 621C333 625.418 336.582 629 341 629Z" fill="#0A0A0A"/>
<path d="M397 629C401.418 629 405 625.418 405 621C405 616.582 401.418 613 397 613C392.582 613 389 616.582 389 621C389 625.418 392.582 629 397 629Z" fill="#0A0A0A"/>
<path d="M453 629C457.418 629 461 625.418 461 621C461 616.582 457.418 613 453 613C448.582 613 445 616.582 445 621C445 625.418 448.582 629 453 629Z" fill="#0A0A0A"/>
<path opacity="0.35" d="M509 629C513.418 629 517 625.418 517 621C517 616.582 513.418 613 509 613C504.582 613 501 616.582 501 621C501 625.418 504.582 629 509 629Z" fill="#0A0A0A"/>
<path opacity="0.35" d="M565 629C569.418 629 573 625.418 573 621C573 616.582 569.418 613 565 613C560.582 613 557 616.582 557 621C557 625.418 560.582 629 565 629Z" fill="#0A0A0A"/>
<path opacity="0.35" d="M621 629C625.418 629 629 625.418 629 621C629 616.582 625.418 613 621 613C616.582 613 613 616.582 613 621C613 625.418 616.582 629 621 629Z" fill="#0A0A0A"/>
<path opacity="0.35" d="M677 629C681.418 629 685 625.418 685 621C685 616.582 681.418 613 677 613C672.582 613 669 616.582 669 621C669 625.418 672.582 629 677 629Z" fill="#0A0A0A"/>
<path d="M733 629C737.418 629 741 625.418 741 621C741 616.582 737.418 613 733 613C728.582 613 725 616.582 725 621C725 625.418 728.582 629 733 629Z" fill="#0A0A0A"/>
<path d="M789 629C793.418 629 797 625.418 797 621C797 616.582 793.418 613 789 613C784.582 613 781 616.582 781 621C781 625.418 784.582 629 789 629Z" fill="#0A0A0A"/>
<path d="M845 629C849.418 629 853 625.418 853 621C853 616.582 849.418 613 845 613C840.582 613 837 616.582 837 621C837 625.418 840.582 629 845 629Z" fill="#0A0A0A"/>
<path opacity="0.35" d="M901 629C905.418 629 909 625.418 909 621C909 616.582 905.418 613 901 613C896.582 613 893 616.582 893 621C893 625.418 896.582 629 901 629Z" fill="#0A0A0A"/>
<path opacity="0.35" d="M957 629C961.418 629 965 625.418 965 621C965 616.582 961.418 613 957 613C952.582 613 949 616.582 949 621C949 625.418 952.582 629 957 629Z" fill="#0A0A0A"/>
<path opacity="0.35" d="M1014 629C1018.42 629 1022 625.418 1022 621C1022 616.582 1018.42 613 1014 613C1009.58 613 1006 616.582 1006 621C1006 625.418 1009.58 629 1014 629Z" fill="#0A0A0A"/>
<path opacity="0.35" d="M4 685C8.41828 685 12 681.418 12 677C12 672.582 8.41828 669 4 669C-0.418278 669 -4 672.582 -4 677C-4 681.418 -0.418278 685 4 685Z" fill="#0A0A0A"/>
<path d="M60 685C64.4183 685 68 681.418 68 677C68 672.582 64.4183 669 60 669C55.5817 669 52 672.582 52 677C52 681.418 55.5817 685 60 685Z" fill="#0A0A0A"/>
<path opacity="0.35" d="M116 685C120.418 685 124 681.418 124 677C124 672.582 120.418 669 116 669C111.582 669 108 672.582 108 677C108 681.418 111.582 685 116 685Z" fill="#0A0A0A"/>
<path opacity="0.35" d="M173 685C177.418 685 181 681.418 181 677C181 672.582 177.418 669 173 669C168.582 669 165 672.582 165 677C165 681.418 168.582 685 173 685Z" fill="#0A0A0A"/>
<path d="M229 685C233.418 685 237 681.418 237 677C237 672.582 233.418 669 229 669C224.582 669 221 672.582 221 677C221 681.418 224.582 685 229 685Z" fill="#0A0A0A"/>
<path opacity="0.35" d="M285 685C289.418 685 293 681.418 293 677C293 672.582 289.418 669 285 669C280.582 669 277 672.582 277 677C277 681.418 280.582 685 285 685Z" fill="#0A0A0A"/>
<path opacity="0.35" d="M341 685C345.418 685 349 681.418 349 677C349 672.582 345.418 669 341 669C336.582 669 333 672.582 333 677C333 681.418 336.582 685 341 685Z" fill="#0A0A0A"/>
<path opacity="0.35" d="M397 685C401.418 685 405 681.418 405 677C405 672.582 401.418 669 397 669C392.582 669 389 672.582 389 677C389 681.418 392.582 685 397 685Z" fill="#0A0A0A"/>
<path opacity="0.2" d="M453 685C457.418 685 461 681.418 461 677C461 672.582 457.418 669 453 669C448.582 669 445 672.582 445 677C445 681.418 448.582 685 453 685Z" fill="#0A0A0A"/>
<path opacity="0.35" d="M509 685C513.418 685 517 681.418 517 677C517 672.582 513.418 669 509 669C504.582 669 501 672.582 501 677C501 681.418 504.582 685 509 685Z" fill="#0A0A0A"/>
<path opacity="0.35" d="M565 685C569.418 685 573 681.418 573 677C573 672.582 569.418 669 565 669C560.582 669 557 672.582 557 677C557 681.418 560.582 685 565 685Z" fill="#0A0A0A"/>
<path opacity="0.35" d="M621 685C625.418 685 629 681.418 629 677C629 672.582 625.418 669 621 669C616.582 669 613 672.582 613 677C613 681.418 616.582 685 621 685Z" fill="#0A0A0A"/>
<path opacity="0.35" d="M677 685C681.418 685 685 681.418 685 677C685 672.582 681.418 669 677 669C672.582 669 669 672.582 669 677C669 681.418 672.582 685 677 685Z" fill="#0A0A0A"/>
<path opacity="0.35" d="M733 685C737.418 685 741 681.418 741 677C741 672.582 737.418 669 733 669C728.582 669 725 672.582 725 677C725 681.418 728.582 685 733 685Z" fill="#0A0A0A"/>
<path opacity="0.35" d="M789 685C793.418 685 797 681.418 797 677C797 672.582 793.418 669 789 669C784.582 669 781 672.582 781 677C781 681.418 784.582 685 789 685Z" fill="#0A0A0A"/>
<path opacity="0.35" d="M845 685C849.418 685 853 681.418 853 677C853 672.582 849.418 669 845 669C840.582 669 837 672.582 837 677C837 681.418 840.582 685 845 685Z" fill="#0A0A0A"/>
<path opacity="0.35" d="M901 685C905.418 685 909 681.418 909 677C909 672.582 905.418 669 901 669C896.582 669 893 672.582 893 677C893 681.418 896.582 685 901 685Z" fill="#0A0A0A"/>
<path opacity="0.35" d="M957 685C961.418 685 965 681.418 965 677C965 672.582 961.418 669 957 669C952.582 669 949 672.582 949 677C949 681.418 952.582 685 957 685Z" fill="#0A0A0A"/>
<path opacity="0.35" d="M1014 685C1018.42 685 1022 681.418 1022 677C1022 672.582 1018.42 669 1014 669C1009.58 669 1006 672.582 1006 677C1006 681.418 1009.58 685 1014 685Z" fill="#0A0A0A"/>
<path opacity="0.35" d="M4 741C8.41828 741 12 737.418 12 733C12 728.582 8.41828 725 4 725C-0.418278 725 -4 728.582 -4 733C-4 737.418 -0.418278 741 4 741Z" fill="#0A0A0A"/>
<path d="M60 741C64.4183 741 68 737.418 68 733C68 728.582 64.4183 725 60 725C55.5817 725 52 728.582 52 733C52 737.418 55.5817 741 60 741Z" fill="#0A0A0A"/>
<path opacity="0.35" d="M116 741C120.418 741 124 737.418 124 733C124 728.582 120.418 725 116 725C111.582 725 108 728.582 108 733C108 737.418 111.582 741 116 741Z" fill="#0A0A0A"/>
<path opacity="0.35" d="M173 741C177.418 741 181 737.418 181 733C181 728.582 177.418 725 173 725C168.582 725 165 728.582 165 733C165 737.418 168.582 741 173 741Z" fill="#0A0A0A"/>
<path opacity="0.35" d="M229 741C233.418 741 237 737.418 237 733C237 728.582 233.418 725 229 725C224.582 725 221 728.582 221 733C221 737.418 224.582 741 229 741Z" fill="#0A0A0A"/>
<path opacity="0.35" d="M285 741C289.418 741 293 737.418 293 733C293 728.582 289.418 725 285 725C280.582 725 277 728.582 277 733C277 737.418 280.582 741 285 741Z" fill="#0A0A0A"/>
<path d="M341 741C345.418 741 349 737.418 349 733C349 728.582 345.418 725 341 725C336.582 725 333 728.582 333 733C333 737.418 336.582 741 341 741Z" fill="#0A0A0A"/>
<path opacity="0.35" d="M397 741C401.418 741 405 737.418 405 733C405 728.582 401.418 725 397 725C392.582 725 389 728.582 389 733C389 737.418 392.582 741 397 741Z" fill="#0A0A0A"/>
<path opacity="0.35" d="M453 741C457.418 741 461 737.418 461 733C461 728.582 457.418 725 453 725C448.582 725 445 728.582 445 733C445 737.418 448.582 741 453 741Z" fill="#0A0A0A"/>
<path opacity="0.35" d="M509 741C513.418 741 517 737.418 517 733C517 728.582 513.418 725 509 725C504.582 725 501 728.582 501 733C501 737.418 504.582 741 509 741Z" fill="#0A0A0A"/>
<path opacity="0.35" d="M565 741C569.418 741 573 737.418 573 733C573 728.582 569.418 725 565 725C560.582 725 557 728.582 557 733C557 737.418 560.582 741 565 741Z" fill="#0A0A0A"/>
<path opacity="0.35" d="M621 741C625.418 741 629 737.418 629 733C629 728.582 625.418 725 621 725C616.582 725 613 728.582 613 733C613 737.418 616.582 741 621 741Z" fill="#0A0A0A"/>
<path opacity="0.35" d="M677 741C681.418 741 685 737.418 685 733C685 728.582 681.418 725 677 725C672.582 725 669 728.582 669 733C669 737.418 672.582 741 677 741Z" fill="#0A0A0A"/>
<path d="M733 741C737.418 741 741 737.418 741 733C741 728.582 737.418 725 733 725C728.582 725 725 728.582 725 733C725 737.418 728.582 741 733 741Z" fill="#0A0A0A"/>
<path opacity="0.35" d="M789 741C793.418 741 797 737.418 797 733C797 728.582 793.418 725 789 725C784.582 725 781 728.582 781 733C781 737.418 784.582 741 789 741Z" fill="#0A0A0A"/>
<path d="M845 741C849.418 741 853 737.418 853 733C853 728.582 849.418 725 845 725C840.582 725 837 728.582 837 733C837 737.418 840.582 741 845 741Z" fill="#0A0A0A"/>
<path opacity="0.35" d="M901 741C905.418 741 909 737.418 909 733C909 728.582 905.418 725 901 725C896.582 725 893 728.582 893 733C893 737.418 896.582 741 901 741Z" fill="#0A0A0A"/>
<path opacity="0.35" d="M957 741C961.418 741 965 737.418 965 733C965 728.582 961.418 725 957 725C952.582 725 949 728.582 949 733C949 737.418 952.582 741 957 741Z" fill="#0A0A0A"/>
<path opacity="0.35" d="M1014 741C1018.42 741 1022 737.418 1022 733C1022 728.582 1018.42 725 1014 725C1009.58 725 1006 728.582 1006 733C1006 737.418 1009.58 741 1014 741Z" fill="#0A0A0A"/>
<path opacity="0.35" d="M4 797C8.41828 797 12 793.418 12 789C12 784.582 8.41828 781 4 781C-0.418278 781 -4 784.582 -4 789C-4 793.418 -0.418278 797 4 797Z" fill="#0A0A0A"/>
<path opacity="0.35" d="M60 797C64.4183 797 68 793.418 68 789C68 784.582 64.4183 781 60 781C55.5817 781 52 784.582 52 789C52 793.418 55.5817 797 60 797Z" fill="#0A0A0A"/>
<path opacity="0.35" d="M116 797C120.418 797 124 793.418 124 789C124 784.582 120.418 781 116 781C111.582 781 108 784.582 108 789C108 793.418 111.582 797 116 797Z" fill="#0A0A0A"/>
<path opacity="0.35" d="M173 797C177.418 797 181 793.418 181 789C181 784.582 177.418 781 173 781C168.582 781 165 784.582 165 789C165 793.418 168.582 797 173 797Z" fill="#0A0A0A"/>
<path opacity="0.35" d="M229 797C233.418 797 237 793.418 237 789C237 784.582 233.418 781 229 781C224.582 781 221 784.582 221 789C221 793.418 224.582 797 229 797Z" fill="#0A0A0A"/>
<path opacity="0.35" d="M285 797C289.418 797 293 793.418 293 789C293 784.582 289.418 781 285 781C280.582 781 277 784.582 277 789C277 793.418 280.582 797 285 797Z" fill="#0A0A0A"/>
<path opacity="0.35" d="M341 797C345.418 797 349 793.418 349 789C349 784.582 345.418 781 341 781C336.582 781 333 784.582 333 789C333 793.418 336.582 797 341 797Z" fill="#0A0A0A"/>
<path opacity="0.35" d="M397 797C401.418 797 405 793.418 405 789C405 784.582 401.418 781 397 781C392.582 781 389 784.582 389 789C389 793.418 392.582 797 397 797Z" fill="#0A0A0A"/>
<path opacity="0.35" d="M453 797C457.418 797 461 793.418 461 789C461 784.582 457.418 781 453 781C448.582 781 445 784.582 445 789C445 793.418 448.582 797 453 797Z" fill="#0A0A0A"/>
<path d="M509 797C513.418 797 517 793.418 517 789C517 784.582 513.418 781 509 781C504.582 781 501 784.582 501 789C501 793.418 504.582 797 509 797Z" fill="#0A0A0A"/>
<path opacity="0.35" d="M565 797C569.418 797 573 793.418 573 789C573 784.582 569.418 781 565 781C560.582 781 557 784.582 557 789C557 793.418 560.582 797 565 797Z" fill="#0A0A0A"/>
<path opacity="0.35" d="M621 797C625.418 797 629 793.418 629 789C629 784.582 625.418 781 621 781C616.582 781 613 784.582 613 789C613 793.418 616.582 797 621 797Z" fill="#0A0A0A"/>
<path opacity="0.35" d="M677 797C681.418 797 685 793.418 685 789C685 784.582 681.418 781 677 781C672.582 781 669 784.582 669 789C669 793.418 672.582 797 677 797Z" fill="#0A0A0A"/>
<path opacity="0.35" d="M733 797C737.418 797 741 793.418 741 789C741 784.582 737.418 781 733 781C728.582 781 725 784.582 725 789C725 793.418 728.582 797 733 797Z" fill="#0A0A0A"/>
<path opacity="0.35" d="M789 797C793.418 797 797 793.418 797 789C797 784.582 793.418 781 789 781C784.582 781 781 784.582 781 789C781 793.418 784.582 797 789 797Z" fill="#0A0A0A"/>
<path opacity="0.35" d="M845 797C849.418 797 853 793.418 853 789C853 784.582 849.418 781 845 781C840.582 781 837 784.582 837 789C837 793.418 840.582 797 845 797Z" fill="#0A0A0A"/>
<path opacity="0.35" d="M901 797C905.418 797 909 793.418 909 789C909 784.582 905.418 781 901 781C896.582 781 893 784.582 893 789C893 793.418 896.582 797 901 797Z" fill="#0A0A0A"/>
<path opacity="0.35" d="M957 797C961.418 797 965 793.418 965 789C965 784.582 961.418 781 957 781C952.582 781 949 784.582 949 789C949 793.418 952.582 797 957 797Z" fill="#0A0A0A"/>
<path opacity="0.35" d="M1014 797C1018.42 797 1022 793.418 1022 789C1022 784.582 1018.42 781 1014 781C1009.58 781 1006 784.582 1006 789C1006 793.418 1009.58 797 1014 797Z" fill="#0A0A0A"/>
<path opacity="0.35" d="M4 853C8.41828 853 12 849.418 12 845C12 840.582 8.41828 837 4 837C-0.418278 837 -4 840.582 -4 845C-4 849.418 -0.418278 853 4 853Z" fill="#0A0A0A"/>
<path opacity="0.35" d="M60 853C64.4183 853 68 849.418 68 845C68 840.582 64.4183 837 60 837C55.5817 837 52 840.582 52 845C52 849.418 55.5817 853 60 853Z" fill="#0A0A0A"/>
<path opacity="0.35" d="M116 853C120.418 853 124 849.418 124 845C124 840.582 120.418 837 116 837C111.582 837 108 840.582 108 845C108 849.418 111.582 853 116 853Z" fill="#0A0A0A"/>
<path opacity="0.35" d="M173 853C177.418 853 181 849.418 181 845C181 840.582 177.418 837 173 837C168.582 837 165 840.582 165 845C165 849.418 168.582 853 173 853Z" fill="#0A0A0A"/>
<path d="M229 853C233.418 853 237 849.418 237 845C237 840.582 233.418 837 229 837C224.582 837 221 840.582 221 845C221 849.418 224.582 853 229 853Z" fill="#0A0A0A"/>
<path opacity="0.35" d="M285 853C289.418 853 293 849.418 293 845C293 840.582 289.418 837 285 837C280.582 837 277 840.582 277 845C277 849.418 280.582 853 285 853Z" fill="#0A0A0A"/>
<path opacity="0.35" d="M341 853C345.418 853 349 849.418 349 845C349 840.582 345.418 837 341 837C336.582 837 333 840.582 333 845C333 849.418 336.582 853 341 853Z" fill="#0A0A0A"/>
<path opacity="0.35" d="M397 853C401.418 853 405 849.418 405 845C405 840.582 401.418 837 397 837C392.582 837 389 840.582 389 845C389 849.418 392.582 853 397 853Z" fill="#0A0A0A"/>
<path opacity="0.35" d="M453 853C457.418 853 461 849.418 461 845C461 840.582 457.418 837 453 837C448.582 837 445 840.582 445 845C445 849.418 448.582 853 453 853Z" fill="#0A0A0A"/>
<path d="M509 853C513.418 853 517 849.418 517 845C517 840.582 513.418 837 509 837C504.582 837 501 840.582 501 845C501 849.418 504.582 853 509 853Z" fill="#0A0A0A"/>
<path opacity="0.35" d="M565 853C569.418 853 573 849.418 573 845C573 840.582 569.418 837 565 837C560.582 837 557 840.582 557 845C557 849.418 560.582 853 565 853Z" fill="#0A0A0A"/>
<path opacity="0.35" d="M621 853C625.418 853 629 849.418 629 845C629 840.582 625.418 837 621 837C616.582 837 613 840.582 613 845C613 849.418 616.582 853 621 853Z" fill="#0A0A0A"/>
<path d="M677 853C681.418 853 685 849.418 685 845C685 840.582 681.418 837 677 837C672.582 837 669 840.582 669 845C669 849.418 672.582 853 677 853Z" fill="#0A0A0A"/>
<path opacity="0.35" d="M733 853C737.418 853 741 849.418 741 845C741 840.582 737.418 837 733 837C728.582 837 725 840.582 725 845C725 849.418 728.582 853 733 853Z" fill="#0A0A0A"/>
<path opacity="0.35" d="M789 853C793.418 853 797 849.418 797 845C797 840.582 793.418 837 789 837C784.582 837 781 840.582 781 845C781 849.418 784.582 853 789 853Z" fill="#0A0A0A"/>
<path d="M845 853C849.418 853 853 849.418 853 845C853 840.582 849.418 837 845 837C840.582 837 837 840.582 837 845C837 849.418 840.582 853 845 853Z" fill="#0A0A0A"/>
<path d="M901 853C905.418 853 909 849.418 909 845C909 840.582 905.418 837 901 837C896.582 837 893 840.582 893 845C893 849.418 896.582 853 901 853Z" fill="#0A0A0A"/>
<path d="M957 853C961.418 853 965 849.418 965 845C965 840.582 961.418 837 957 837C952.582 837 949 840.582 949 845C949 849.418 952.582 853 957 853Z" fill="#0A0A0A"/>
<path opacity="0.35" d="M1014 853C1018.42 853 1022 849.418 1022 845C1022 840.582 1018.42 837 1014 837C1009.58 837 1006 840.582 1006 845C1006 849.418 1009.58 853 1014 853Z" fill="#0A0A0A"/>
<path opacity="0.35" d="M4 909C8.41828 909 12 905.418 12 901C12 896.582 8.41828 893 4 893C-0.418278 893 -4 896.582 -4 901C-4 905.418 -0.418278 909 4 909Z" fill="#0A0A0A"/>
<path opacity="0.35" d="M60 909C64.4183 909 68 905.418 68 901C68 896.582 64.4183 893 60 893C55.5817 893 52 896.582 52 901C52 905.418 55.5817 909 60 909Z" fill="#0A0A0A"/>
<path opacity="0.35" d="M116 909C120.418 909 124 905.418 124 901C124 896.582 120.418 893 116 893C111.582 893 108 896.582 108 901C108 905.418 111.582 909 116 909Z" fill="#0A0A0A"/>
<path opacity="0.35" d="M173 909C177.418 909 181 905.418 181 901C181 896.582 177.418 893 173 893C168.582 893 165 896.582 165 901C165 905.418 168.582 909 173 909Z" fill="#0A0A0A"/>
<path opacity="0.35" d="M229 909C233.418 909 237 905.418 237 901C237 896.582 233.418 893 229 893C224.582 893 221 896.582 221 901C221 905.418 224.582 909 229 909Z" fill="#0A0A0A"/>
<path opacity="0.35" d="M285 909C289.418 909 293 905.418 293 901C293 896.582 289.418 893 285 893C280.582 893 277 896.582 277 901C277 905.418 280.582 909 285 909Z" fill="#0A0A0A"/>
<path opacity="0.35" d="M341 909C345.418 909 349 905.418 349 901C349 896.582 345.418 893 341 893C336.582 893 333 896.582 333 901C333 905.418 336.582 909 341 909Z" fill="#0A0A0A"/>
<path d="M397 909C401.418 909 405 905.418 405 901C405 896.582 401.418 893 397 893C392.582 893 389 896.582 389 901C389 905.418 392.582 909 397 909Z" fill="#0A0A0A"/>
<path opacity="0.35" d="M453 909C457.418 909 461 905.418 461 901C461 896.582 457.418 893 453 893C448.582 893 445 896.582 445 901C445 905.418 448.582 909 453 909Z" fill="#0A0A0A"/>
<path d="M509 909C513.418 909 517 905.418 517 901C517 896.582 513.418 893 509 893C504.582 893 501 896.582 501 901C501 905.418 504.582 909 509 909Z" fill="#0A0A0A"/>
<path d="M565 909C569.418 909 573 905.418 573 901C573 896.582 569.418 893 565 893C560.582 893 557 896.582 557 901C557 905.418 560.582 909 565 909Z" fill="#0A0A0A"/>
<path opacity="0.35" d="M621 909C625.418 909 629 905.418 629 901C629 896.582 625.418 893 621 893C616.582 893 613 896.582 613 901C613 905.418 616.582 909 621 909Z" fill="#0A0A0A"/>
<path opacity="0.35" d="M677 909C681.418 909 685 905.418 685 901C685 896.582 681.418 893 677 893C672.582 893 669 896.582 669 901C669 905.418 672.582 909 677 909Z" fill="#0A0A0A"/>
<path opacity="0.35" d="M733 909C737.418 909 741 905.418 741 901C741 896.582 737.418 893 733 893C728.582 893 725 896.582 725 901C725 905.418 728.582 909 733 909Z" fill="#0A0A0A"/>
<path opacity="0.35" d="M789 909C793.418 909 797 905.418 797 901C797 896.582 793.418 893 789 893C784.582 893 781 896.582 781 901C781 905.418 784.582 909 789 909Z" fill="#0A0A0A"/>
<path opacity="0.35" d="M845 909C849.418 909 853 905.418 853 901C853 896.582 849.418 893 845 893C840.582 893 837 896.582 837 901C837 905.418 840.582 909 845 909Z" fill="#0A0A0A"/>
<path opacity="0.35" d="M901 909C905.418 909 909 905.418 909 901C909 896.582 905.418 893 901 893C896.582 893 893 896.582 893 901C893 905.418 896.582 909 901 909Z" fill="#0A0A0A"/>
<path opacity="0.35" d="M957 909C961.418 909 965 905.418 965 901C965 896.582 961.418 893 957 893C952.582 893 949 896.582 949 901C949 905.418 952.582 909 957 909Z" fill="#0A0A0A"/>
<path opacity="0.35" d="M1014 909C1018.42 909 1022 905.418 1022 901C1022 896.582 1018.42 893 1014 893C1009.58 893 1006 896.582 1006 901C1006 905.418 1009.58 909 1014 909Z" fill="#0A0A0A"/>
<path opacity="0.35" d="M4 965C8.41828 965 12 961.418 12 957C12 952.582 8.41828 949 4 949C-0.418278 949 -4 952.582 -4 957C-4 961.418 -0.418278 965 4 965Z" fill="#0A0A0A"/>
<path opacity="0.35" d="M60 965C64.4183 965 68 961.418 68 957C68 952.582 64.4183 949 60 949C55.5817 949 52 952.582 52 957C52 961.418 55.5817 965 60 965Z" fill="#0A0A0A"/>
<path opacity="0.35" d="M116 965C120.418 965 124 961.418 124 957C124 952.582 120.418 949 116 949C111.582 949 108 952.582 108 957C108 961.418 111.582 965 116 965Z" fill="#0A0A0A"/>
<path d="M173 965C177.418 965 181 961.418 181 957C181 952.582 177.418 949 173 949C168.582 949 165 952.582 165 957C165 961.418 168.582 965 173 965Z" fill="#0A0A0A"/>
<path d="M229 965C233.418 965 237 961.418 237 957C237 952.582 233.418 949 229 949C224.582 949 221 952.582 221 957C221 961.418 224.582 965 229 965Z" fill="#0A0A0A"/>
<path d="M285 965C289.418 965 293 961.418 293 957C293 952.582 289.418 949 285 949C280.582 949 277 952.582 277 957C277 961.418 280.582 965 285 965Z" fill="#0A0A0A"/>
<path opacity="0.35" d="M341 965C345.418 965 349 961.418 349 957C349 952.582 345.418 949 341 949C336.582 949 333 952.582 333 957C333 961.418 336.582 965 341 965Z" fill="#0A0A0A"/>
<path opacity="0.35" d="M397 965C401.418 965 405 961.418 405 957C405 952.582 401.418 949 397 949C392.582 949 389 952.582 389 957C389 961.418 392.582 965 397 965Z" fill="#0A0A0A"/>
<path opacity="0.35" d="M453 965C457.418 965 461 961.418 461 957C461 952.582 457.418 949 453 949C448.582 949 445 952.582 445 957C445 961.418 448.582 965 453 965Z" fill="#0A0A0A"/>
<path opacity="0.35" d="M509 965C513.418 965 517 961.418 517 957C517 952.582 513.418 949 509 949C504.582 949 501 952.582 501 957C501 961.418 504.582 965 509 965Z" fill="#0A0A0A"/>
<path opacity="0.35" d="M565 965C569.418 965 573 961.418 573 957C573 952.582 569.418 949 565 949C560.582 949 557 952.582 557 957C557 961.418 560.582 965 565 965Z" fill="#0A0A0A"/>
<path d="M621 965C625.418 965 629 961.418 629 957C629 952.582 625.418 949 621 949C616.582 949 613 952.582 613 957C613 961.418 616.582 965 621 965Z" fill="#0A0A0A"/>
<path opacity="0.35" d="M677 965C681.418 965 685 961.418 685 957C685 952.582 681.418 949 677 949C672.582 949 669 952.582 669 957C669 961.418 672.582 965 677 965Z" fill="#0A0A0A"/>
<path opacity="0.35" d="M733 965C737.418 965 741 961.418 741 957C741 952.582 737.418 949 733 949C728.582 949 725 952.582 725 957C725 961.418 728.582 965 733 965Z" fill="#0A0A0A"/>
<path opacity="0.35" d="M789 965C793.418 965 797 961.418 797 957C797 952.582 793.418 949 789 949C784.582 949 781 952.582 781 957C781 961.418 784.582 965 789 965Z" fill="#0A0A0A"/>
<path opacity="0.35" d="M845 965C849.418 965 853 961.418 853 957C853 952.582 849.418 949 845 949C840.582 949 837 952.582 837 957C837 961.418 840.582 965 845 965Z" fill="#0A0A0A"/>
<path d="M901 965C905.418 965 909 961.418 909 957C909 952.582 905.418 949 901 949C896.582 949 893 952.582 893 957C893 961.418 896.582 965 901 965Z" fill="#0A0A0A"/>
<path d="M957 965C961.418 965 965 961.418 965 957C965 952.582 961.418 949 957 949C952.582 949 949 952.582 949 957C949 961.418 952.582 965 957 965Z" fill="#0A0A0A"/>
<path opacity="0.35" d="M1014 965C1018.42 965 1022 961.418 1022 957C1022 952.582 1018.42 949 1014 949C1009.58 949 1006 952.582 1006 957C1006 961.418 1009.58 965 1014 965Z" fill="#0A0A0A"/>
<path opacity="0.35" d="M4 1022C8.41828 1022 12 1018.42 12 1014C12 1009.58 8.41828 1006 4 1006C-0.418278 1006 -4 1009.58 -4 1014C-4 1018.42 -0.418278 1022 4 1022Z" fill="#0A0A0A"/>
<path opacity="0.35" d="M60 1022C64.4183 1022 68 1018.42 68 1014C68 1009.58 64.4183 1006 60 1006C55.5817 1006 52 1009.58 52 1014C52 1018.42 55.5817 1022 60 1022Z" fill="#0A0A0A"/>
<path opacity="0.35" d="M116 1022C120.418 1022 124 1018.42 124 1014C124 1009.58 120.418 1006 116 1006C111.582 1006 108 1009.58 108 1014C108 1018.42 111.582 1022 116 1022Z" fill="#0A0A0A"/>
<path opacity="0.35" d="M173 1022C177.418 1022 181 1018.42 181 1014C181 1009.58 177.418 1006 173 1006C168.582 1006 165 1009.58 165 1014C165 1018.42 168.582 1022 173 1022Z" fill="#0A0A0A"/>
<path opacity="0.35" d="M229 1022C233.418 1022 237 1018.42 237 1014C237 1009.58 233.418 1006 229 1006C224.582 1006 221 1009.58 221 1014C221 1018.42 224.582 1022 229 1022Z" fill="#0A0A0A"/>
<path opacity="0.35" d="M285 1022C289.418 1022 293 1018.42 293 1014C293 1009.58 289.418 1006 285 1006C280.582 1006 277 1009.58 277 1014C277 1018.42 280.582 1022 285 1022Z" fill="#0A0A0A"/>
<path opacity="0.35" d="M341 1022C345.418 1022 349 1018.42 349 1014C349 1009.58 345.418 1006 341 1006C336.582 1006 333 1009.58 333 1014C333 1018.42 336.582 1022 341 1022Z" fill="#0A0A0A"/>
<path opacity="0.35" d="M397 1022C401.418 1022 405 1018.42 405 1014C405 1009.58 401.418 1006 397 1006C392.582 1006 389 1009.58 389 1014C389 1018.42 392.582 1022 397 1022Z" fill="#0A0A0A"/>
<path opacity="0.35" d="M453 1022C457.418 1022 461 1018.42 461 1014C461 1009.58 457.418 1006 453 1006C448.582 1006 445 1009.58 445 1014C445 1018.42 448.582 1022 453 1022Z" fill="#0A0A0A"/>
<path opacity="0.35" d="M509 1022C513.418 1022 517 1018.42 517 1014C517 1009.58 513.418 1006 509 1006C504.582 1006 501 1009.58 501 1014C501 1018.42 504.582 1022 509 1022Z" fill="#0A0A0A"/>
<path opacity="0.35" d="M565 1022C569.418 1022 573 1018.42 573 1014C573 1009.58 569.418 1006 565 1006C560.582 1006 557 1009.58 557 1014C557 1018.42 560.582 1022 565 1022Z" fill="#0A0A0A"/>
<path opacity="0.35" d="M621 1022C625.418 1022 629 1018.42 629 1014C629 1009.58 625.418 1006 621 1006C616.582 1006 613 1009.58 613 1014C613 1018.42 616.582 1022 621 1022Z" fill="#0A0A0A"/>
<path opacity="0.35" d="M677 1022C681.418 1022 685 1018.42 685 1014C685 1009.58 681.418 1006 677 1006C672.582 1006 669 1009.58 669 1014C669 1018.42 672.582 1022 677 1022Z" fill="#0A0A0A"/>
<path opacity="0.35" d="M733 1022C737.418 1022 741 1018.42 741 1014C741 1009.58 737.418 1006 733 1006C728.582 1006 725 1009.58 725 1014C725 1018.42 728.582 1022 733 1022Z" fill="#0A0A0A"/>
<path opacity="0.35" d="M789 1022C793.418 1022 797 1018.42 797 1014C797 1009.58 793.418 1006 789 1006C784.582 1006 781 1009.58 781 1014C781 1018.42 784.582 1022 789 1022Z" fill="#0A0A0A"/>
<path opacity="0.35" d="M845 1022C849.418 1022 853 1018.42 853 1014C853 1009.58 849.418 1006 845 1006C840.582 1006 837 1009.58 837 1014C837 1018.42 840.582 1022 845 1022Z" fill="#0A0A0A"/>
<path opacity="0.35" d="M901 1022C905.418 1022 909 1018.42 909 1014C909 1009.58 905.418 1006 901 1006C896.582 1006 893 1009.58 893 1014C893 1018.42 896.582 1022 901 1022Z" fill="#0A0A0A"/>
<path opacity="0.35" d="M957 1022C961.418 1022 965 1018.42 965 1014C965 1009.58 961.418 1006 957 1006C952.582 1006 949 1009.58 949 1014C949 1018.42 952.582 1022 957 1022Z" fill="#0A0A0A"/>
<path opacity="0.35" d="M1014 1022C1018.42 1022 1022 1018.42 1022 1014C1022 1009.58 1018.42 1006 1014 1006C1009.58 1006 1006 1009.58 1006 1014C1006 1018.42 1009.58 1022 1014 1022Z" fill="#0A0A0A"/>
</g>
</g>
<use xlink:href="#pattern0_26758_73282_inner" transform="translate(1009.19 504.597)"/>
</pattern><clipPath id="clip0_26758_73282">
<rect width="1009.19" height="1009.19" fill="white"/>
</clipPath>
</defs>
</svg>
